<svg xmlns="http://www.w3.org/2000/svg" viewBox="0 0 64 64" fill="none">
  <path fill="currentColor" d="M12 18a6 6 0 0 1 6-6h28a6 6 0 0 1 6 6v28a6 6 0 0 1-6 6H18a6 6 0 0 1-6-6V18Zm6-1.5a1.5 1.5 0 0 0-1.5 1.5v28a1.5 1.5 0 0 0 1.5 1.5h28a1.5 1.5 0 0 0 1.5-1.5V18a1.5 1.5 0 0 0-1.5-1.5H18Z"/>
  <path fill="currentColor" d="M20 23.5a2.5 2.5 0 0 1 2.5-2.5h19a2.5 2.5 0 0 1 0 5h-19a2.5 2.5 0 0 1-2.5-2.5ZM20 32a2.5 2.5 0 0 1 2.5-2.5h8.8a2.5 2.5 0 0 1 0 5h-8.8A2.5 2.5 0 0 1 20 32ZM20 40.5a2.5 2.5 0 0 1 2.5-2.5h19a2.5 2.5 0 0 1 0 5h-19a2.5 2.5 0 0 1-2.5-2.5Z"/>
  <path fill="currentColor" d="M34.6 31.9c0-.9.7-1.6 1.6-1.6h5.7l-2.2-2.2a1.6 1.6 0 1 1 2.2-2.2l5 5a1.6 1.6 0 0 1 0 2.3l-5 5a1.6 1.6 0 0 1-2.2-2.3l2.2-2.1h-5.7c-.9 0-1.6-.8-1.6-1.7Z"/>
</svg>
