<svg xmlns="http://www.w3.org/2000/svg" viewBox="0 0 24 24" fill="currentColor">
  <path d="M11.789 4.43 L10.453 4.523 L9.82 4.781 L9.469 4.781 L8.016 5.484 L7.078 6.141 L6.141 7.078 L5.742 7.617 L5.719 7.805 L5.484 8.016 L4.781 9.492 L4.781 9.844 L4.5 10.711 L4.453 12.234 L4.547 13.43 L4.781 13.922 L4.805 14.367 L5.602 15.961 L6.68 17.273 L7.875 18.234 L8.953 18.773 L10.266 19.055 L11.508 18.773 L11.836 18.492 L11.953 18.211 L11.977 17.602 L11.859 17.203 L11.18 16.266 L9.727 15.117 L8.531 13.43 L8.133 12.445 L7.875 11.203 L7.875 9.891 L8.273 8.297 L9.094 6.797 L9.469 6.305 L10.547 5.344 L11.648 4.688 L11.977 4.641 L11.977 4.523Z M13.711 4.922 L12.469 5.203 L12.141 5.484 L12.023 5.766 L12 6.375 L12.117 6.773 L12.797 7.711 L14.25 8.859 L15.445 10.547 L15.844 11.531 L16.102 12.773 L16.102 14.086 L15.703 15.68 L14.883 17.18 L14.508 17.672 L13.43 18.633 L12.328 19.289 L12 19.336 L12 19.453 L12.188 19.547 L13.523 19.453 L14.156 19.195 L14.508 19.195 L15.961 18.492 L16.898 17.836 L17.836 16.898 L18.234 16.359 L18.258 16.172 L18.492 15.961 L19.195 14.484 L19.195 14.133 L19.477 13.266 L19.523 11.742 L19.43 10.547 L19.195 10.055 L19.172 9.609 L18.375 8.016 L17.297 6.703 L16.102 5.742 L15.023 5.203Z M11.906 9.867 L11.719 10.383 L11.719 10.734 L11.602 10.805 L11.438 11.414 L10.852 11.695 L9.891 11.883 L9.867 12.07 L10.383 12.258 L10.734 12.258 L10.805 12.375 L11.414 12.539 L11.695 13.125 L11.883 14.086 L12.07 14.109 L12.258 13.594 L12.258 13.242 L12.375 13.172 L12.539 12.562 L13.125 12.281 L14.086 12.094 L14.109 11.906 L13.594 11.719 L13.242 11.719 L13.172 11.602 L12.562 11.438 L12.281 10.852 L12.094 9.891Z"/>
</svg>
