<svg xmlns="http://www.w3.org/2000/svg" viewBox="0 0 24 24" fill="none">
  <path d="M4.55 10.3a7.7 7.7 0 0 1 14.9 0M19.45 13.7a7.7 7.7 0 0 1-14.9 0" stroke="currentColor" stroke-width="1.55" stroke-linecap="round"/>
  <circle cx="3.35" cy="12" r="1.45" fill="currentColor"/>
  <circle cx="20.65" cy="12" r="1.45" fill="currentColor"/>
  <circle cx="12" cy="20.65" r="1.45" fill="currentColor"/>
  <path d="M12 4.85 17.05 7.8 12 10.75 6.95 7.8 12 4.85Z" fill="currentColor"/>
  <path d="M6.65 8.95 11.25 11.65v6.1l-4.6-2.7v-6.1Z" fill="currentColor"/>
  <path d="M17.35 8.95 12.75 11.65v6.1l4.6-2.7v-6.1Z" fill="currentColor"/>
  <path d="M3.35 12h3.3M17.35 12h3.3M12 17.75v2.9" stroke="currentColor" stroke-width="1.05" stroke-linecap="round"/>
  <circle cx="12" cy="12" r=".95" fill="currentColor"/>
</svg>
